<svg xmlns="http://www.w3.org/2000/svg" viewBox="0 0 352.03 613.03"><path d="M147,44l18,21V80l13-5,24-57,36,18,45,39,21,38-11,16,20,10,12,20v16l16,40,6,47,19,47-4,65,4,37-15,23-1,6-16,14-11-15-17-1-7,26-11,50-4,19,4,16-8,24-13,26-24,7-9,22-14-12-18,6-9-3-6-5-8,7-11-10-21,3-13-36-16-22-3-36s-17-19-17-22-5-31-5-31l-17-4V440l-7-22-24,2-8-36V357l7-62-21-9-7-21V221l20-32,15-23-5-25,30-6,34-17,18-30Z" transform="translate(-15 -16.63)" style="fill:none;stroke:#fff;stroke-miterlimit:10;stroke-width:2px"/><path d="M116.79,541.43,194.5,499.5s62,26,61,24,42.75-56.11,42.75-56.11" transform="translate(-15 -16.63)" style="fill:none;stroke:#fff;stroke-miterlimit:10;stroke-width:2px"/><polyline points="22 351.37 118.5 350.87 167.5 431.87 179.5 482.87" style="fill:none;stroke:#fff;stroke-miterlimit:10;stroke-width:2px"/><polyline points="350.14 306.37 224.5 332.87 148.27 400.08" style="fill:none;stroke:#fff;stroke-miterlimit:10;stroke-width:2px"/><polyline points="18 177.17 85.5 226.87 165.5 237.87 224.5 332.87" style="fill:none;stroke:#fff;stroke-miterlimit:10;stroke-width:2px"/><polyline points="176 254.78 212.5 176.87 297.5 121.87" style="fill:none;stroke:#fff;stroke-miterlimit:10;stroke-width:2px"/><polyline points="125.35 232.35 166.5 136.87 153.86 61.89" style="fill:none;stroke:#fff;stroke-miterlimit:10;stroke-width:2px"/></svg>