<svg xmlns="http://www.w3.org/2000/svg" viewBox="0 0 655.1 301.54"><defs><style>.a{fill:#9fedff;}.a,.b,.c,.d{stroke:#1a1a1a;stroke-miterlimit:10;}.b{fill:#c9f2ff;}.c{fill:#d4f9ff;}.d{fill:#bffaff;}</style></defs><polygon class="a" points="404.59 57.79 466.07 31.32 502.14 57.79 526.73 48.53 558.7 92.79 565.45 123.05 463.62 132.97 404.59 57.79"/><polygon class="b" points="278.18 37.39 261.98 14.11 208.7 0.99 173.45 49.35 102.96 72.3 44.86 132.97 188.21 146.07 278.18 37.39"/><polygon class="c" points="327.55 0.99 327.55 300.99 505.42 283.78 654.6 242.79 654.6 142.79 532.47 115.74 424.27 72.3 327.55 0.99"/><polygon class="d" points="327.55 0.99 327.55 300.99 149.68 283.78 0.5 242.79 0.5 142.79 122.63 115.74 230.83 72.3 327.55 0.99"/></svg>